<?xml version="1.0" encoding="UTF-8"?>
<!DOCTYPE svg PUBLIC "-//W3C//DTD SVG 1.1//EN" "http://www.w3.org/Graphics/SVG/1.1/DTD/svg11.dtd">
<svg xmlns="http://www.w3.org/2000/svg" version="1.1" width="500px" height="500px" style="shape-rendering:geometricPrecision; text-rendering:geometricPrecision; image-rendering:optimizeQuality; fill-rule:evenodd; clip-rule:evenodd" xmlns:xlink="http://www.w3.org/1999/xlink">
<g><path style="opacity:0.899" fill="#e5baec" d="M 327.5,132.5 C 327.5,132.833 327.5,133.167 327.5,133.5C 317.319,133.173 307.319,133.506 297.5,134.5C 296.391,134.557 295.391,134.89 294.5,135.5C 294.5,134.5 294.5,133.5 294.5,132.5C 292.071,132.884 289.737,133.551 287.5,134.5C 288.716,132.549 290.382,131.049 292.5,130C 303.5,129.333 314.5,129.333 325.5,130C 326.756,130.417 327.423,131.25 327.5,132.5 Z"/></g>
<g><path style="opacity:1" fill="#e4b4ea" d="M 226.5,131.5 C 213.031,133.161 199.364,134.161 185.5,134.5C 185.167,134.5 184.833,134.5 184.5,134.5C 184.5,133.833 184.5,133.167 184.5,132.5C 184.953,131.542 185.619,130.708 186.5,130C 199.5,129.333 212.5,129.333 225.5,130C 226.056,130.383 226.389,130.883 226.5,131.5 Z"/></g>
<g><path style="opacity:1" fill="#fc54c0" d="M 226.5,131.5 C 227.404,132.209 227.737,133.209 227.5,134.5C 227.167,134.5 226.833,134.5 226.5,134.5C 225.596,141.341 224.762,148.341 224,155.5C 223.5,155 223,154.5 222.5,154C 218.015,153.855 213.682,153.022 209.5,151.5C 208.167,152.167 206.833,152.833 205.5,153.5C 204.148,152.104 202.481,151.437 200.5,151.5C 197.339,152.425 194.339,152.925 191.5,153C 191.833,153.333 192.167,153.667 192.5,154C 191.299,154.903 190.465,156.069 190,157.5C 186.581,150.804 185.748,143.804 187.5,136.5C 187.043,135.702 186.376,135.369 185.5,135.5C 185.5,135.167 185.5,134.833 185.5,134.5C 199.364,134.161 213.031,133.161 226.5,131.5 Z"/></g>
<g><path style="opacity:1" fill="#eae2fa" d="M 294.5,135.5 C 290.833,139.5 287.167,143.5 283.5,147.5C 279.583,151.148 275.583,154.815 271.5,158.5C 270.448,158.351 269.448,158.517 268.5,159C 267.307,161.027 265.64,162.527 263.5,163.5C 261.787,163.121 260.787,162.121 260.5,160.5C 269.527,151.806 278.527,143.139 287.5,134.5C 289.737,133.551 292.071,132.884 294.5,132.5C 294.5,133.5 294.5,134.5 294.5,135.5 Z"/></g>
<g><path style="opacity:1" fill="#f553c3" d="M 327.5,133.5 C 326.536,140.746 326.203,148.08 326.5,155.5C 324.194,155.993 321.861,156.326 319.5,156.5C 319.5,157.833 319.5,159.167 319.5,160.5C 317.5,160.5 315.5,160.5 313.5,160.5C 313.033,162.711 312.033,164.711 310.5,166.5C 309.549,165.674 308.549,165.508 307.5,166C 307.833,166.333 308.167,166.667 308.5,167C 307.333,167.5 306.5,168.333 306,169.5C 304.011,167.616 302.011,167.283 300,168.5C 299.667,167.833 299.333,167.167 299,166.5C 298.333,167.833 297.333,168.833 296,169.5C 290.599,168.362 285.099,167.696 279.5,167.5C 279.423,164.491 280.756,162.324 283.5,161C 279.699,159.551 279.533,157.717 283,155.5C 283.49,154.207 283.657,152.873 283.5,151.5C 287.527,151.719 288.194,150.552 285.5,148C 290.762,144.574 294.762,140.074 297.5,134.5C 307.319,133.506 317.319,133.173 327.5,133.5 Z"/></g>
<g><path style="opacity:1" fill="#ed4cc0" d="M 226.5,134.5 C 226.5,142.833 226.5,151.167 226.5,159.5C 225.907,162.5 225.074,165.5 224,168.5C 223.683,166.699 223.016,166.366 222,167.5C 215.497,166.003 208.997,164.67 202.5,163.5C 200.035,163.478 197.702,163.978 195.5,165C 196.5,165.333 197.5,165.667 198.5,166C 195.905,166.226 193.405,166.726 191,167.5C 188.897,164.941 187.064,162.274 185.5,159.5C 185.5,151.5 185.5,143.5 185.5,135.5C 186.376,135.369 187.043,135.702 187.5,136.5C 185.748,143.804 186.581,150.804 190,157.5C 190.465,156.069 191.299,154.903 192.5,154C 192.167,153.667 191.833,153.333 191.5,153C 194.339,152.925 197.339,152.425 200.5,151.5C 202.481,151.437 204.148,152.104 205.5,153.5C 206.833,152.833 208.167,152.167 209.5,151.5C 213.682,153.022 218.015,153.855 222.5,154C 223,154.5 223.5,155 224,155.5C 224.762,148.341 225.596,141.341 226.5,134.5 Z"/></g>
<g><path style="opacity:1" fill="#de4cc2" d="M 327.5,132.5 C 328.656,139.989 328.822,147.655 328,155.5C 320.826,160.005 314.326,165.338 308.5,171.5C 303.852,170.683 301.685,172.35 302,176.5C 299.064,174.925 296.564,175.425 294.5,178C 296.037,179.11 296.703,180.61 296.5,182.5C 295.5,182.5 294.5,182.5 293.5,182.5C 293.269,179.1 291.436,177.1 288,176.5C 287.692,177.308 287.192,177.975 286.5,178.5C 281.961,178.289 277.294,177.955 272.5,177.5C 272.5,176.167 272.5,174.833 272.5,173.5C 270.857,173.48 269.524,174.147 268.5,175.5C 268.167,175 267.833,174.5 267.5,174C 268.832,171.018 270.165,168.018 271.5,165C 270.956,164.283 270.289,163.783 269.5,163.5C 272.805,159.363 276.638,155.697 281,152.5C 282.094,150.922 282.928,149.255 283.5,147.5C 287.167,143.5 290.833,139.5 294.5,135.5C 295.391,134.89 296.391,134.557 297.5,134.5C 294.762,140.074 290.762,144.574 285.5,148C 288.194,150.552 287.527,151.719 283.5,151.5C 283.657,152.873 283.49,154.207 283,155.5C 279.533,157.717 279.699,159.551 283.5,161C 280.756,162.324 279.423,164.491 279.5,167.5C 285.099,167.696 290.599,168.362 296,169.5C 297.333,168.833 298.333,167.833 299,166.5C 299.333,167.167 299.667,167.833 300,168.5C 302.011,167.283 304.011,167.616 306,169.5C 306.5,168.333 307.333,167.5 308.5,167C 308.167,166.667 307.833,166.333 307.5,166C 308.549,165.508 309.549,165.674 310.5,166.5C 312.033,164.711 313.033,162.711 313.5,160.5C 315.5,160.5 317.5,160.5 319.5,160.5C 319.5,159.167 319.5,157.833 319.5,156.5C 321.861,156.326 324.194,155.993 326.5,155.5C 326.203,148.08 326.536,140.746 327.5,133.5C 327.5,133.167 327.5,132.833 327.5,132.5 Z"/></g>
<g><path style="opacity:1" fill="#fd53bf" d="M 304.5,139.5 C 306.787,139.724 308.953,140.391 311,141.5C 313.165,141.594 315.165,141.26 317,140.5C 318.085,141.293 319.252,141.96 320.5,142.5C 322.198,141.319 323.865,141.319 325.5,142.5C 323.382,144.85 322.382,147.35 322.5,150C 326.507,152.876 325.84,154.709 320.5,155.5C 319.051,154.72 317.551,154.054 316,153.5C 314.674,153.755 313.674,154.422 313,155.5C 309.191,154.554 305.525,154.554 302,155.5C 300,154.833 298,154.167 296,153.5C 294.803,155.883 293.97,155.55 293.5,152.5C 295.911,150.39 297.911,147.89 299.5,145C 298.451,144.508 297.451,144.674 296.5,145.5C 295.479,144.998 295.312,144.332 296,143.5C 298.954,142.225 301.788,140.892 304.5,139.5 Z"/></g>
<g><path style="opacity:1" fill="#c261bf" d="M 283.5,147.5 C 282.928,149.255 282.094,150.922 281,152.5C 276.638,155.697 272.805,159.363 269.5,163.5C 266.167,166.167 263.167,169.167 260.5,172.5C 258.754,174.252 256.754,175.585 254.5,176.5C 260.167,170.5 265.833,164.5 271.5,158.5C 275.583,154.815 279.583,151.148 283.5,147.5 Z"/></g>
<g><path style="opacity:1" fill="#de48c1" d="M 185.5,159.5 C 187.064,162.274 188.897,164.941 191,167.5C 193.405,166.726 195.905,166.226 198.5,166C 197.5,165.667 196.5,165.333 195.5,165C 197.702,163.978 200.035,163.478 202.5,163.5C 208.997,164.67 215.497,166.003 222,167.5C 223.016,166.366 223.683,166.699 224,168.5C 225.074,165.5 225.907,162.5 226.5,159.5C 226.5,164.833 226.5,170.167 226.5,175.5C 224.61,175.297 223.11,175.963 222,177.5C 219.443,175.811 216.609,174.644 213.5,174C 209.539,174.156 205.706,173.99 202,173.5C 198.973,173.077 196.64,174.077 195,176.5C 194.333,173.833 193.667,173.833 193,176.5C 192.333,175.167 191.667,175.167 191,176.5C 189.639,173.093 187.806,170.093 185.5,167.5C 185.5,164.833 185.5,162.167 185.5,159.5 Z"/></g>
<g><path style="opacity:1" fill="#d247c4" d="M 269.5,163.5 C 270.289,163.783 270.956,164.283 271.5,165C 270.165,168.018 268.832,171.018 267.5,174C 267.833,174.5 268.167,175 268.5,175.5C 269.524,174.147 270.857,173.48 272.5,173.5C 272.5,174.833 272.5,176.167 272.5,177.5C 277.294,177.955 281.961,178.289 286.5,178.5C 287.192,177.975 287.692,177.308 288,176.5C 291.436,177.1 293.269,179.1 293.5,182.5C 294.5,182.5 295.5,182.5 296.5,182.5C 296.703,180.61 296.037,179.11 294.5,178C 296.564,175.425 299.064,174.925 302,176.5C 301.685,172.35 303.852,170.683 308.5,171.5C 303.833,176.833 298.833,181.833 293.5,186.5C 291.473,186.338 289.473,186.505 287.5,187C 288.888,187.889 288.722,188.389 287,188.5C 286.228,188.355 285.561,188.022 285,187.5C 284.612,188.428 283.945,189.095 283,189.5C 281.126,187.659 279.126,185.992 277,184.5C 274.478,184.263 271.811,184.596 269,185.5C 267.632,184.297 266.132,183.297 264.5,182.5C 263.95,179.227 262.283,176.727 259.5,175C 260.252,174.329 260.586,173.496 260.5,172.5C 263.167,169.167 266.167,166.167 269.5,163.5 Z"/></g>
<g><path style="opacity:1" fill="#d045c4" d="M 185.5,167.5 C 187.806,170.093 189.639,173.093 191,176.5C 191.667,175.167 192.333,175.167 193,176.5C 193.667,173.833 194.333,173.833 195,176.5C 196.64,174.077 198.973,173.077 202,173.5C 205.706,173.99 209.539,174.156 213.5,174C 216.609,174.644 219.443,175.811 222,177.5C 223.11,175.963 224.61,175.297 226.5,175.5C 226.5,177.833 226.5,180.167 226.5,182.5C 225.396,183.997 224.396,185.664 223.5,187.5C 225.249,188.949 225.416,190.282 224,191.5C 219.632,186.663 214.132,184.329 207.5,184.5C 192.394,189.484 185.061,183.817 185.5,167.5 Z"/></g>
<g><path style="opacity:1" fill="#e1d4f7" d="M 271.5,158.5 C 265.833,164.5 260.167,170.5 254.5,176.5C 249.874,179.458 245.874,183.124 242.5,187.5C 240.833,188.833 239.167,190.167 237.5,191.5C 235.43,191.449 233.597,192.115 232,193.5C 230.97,193.164 230.47,192.497 230.5,191.5C 239.773,180.559 249.773,170.225 260.5,160.5C 260.787,162.121 261.787,163.121 263.5,163.5C 265.64,162.527 267.307,161.027 268.5,159C 269.448,158.517 270.448,158.351 271.5,158.5 Z"/></g>
<g><path style="opacity:1" fill="#c044c9" d="M 184.5,134.5 C 184.833,134.5 185.167,134.5 185.5,134.5C 185.5,134.833 185.5,135.167 185.5,135.5C 185.5,143.5 185.5,151.5 185.5,159.5C 185.5,162.167 185.5,164.833 185.5,167.5C 185.061,183.817 192.394,189.484 207.5,184.5C 214.132,184.329 219.632,186.663 224,191.5C 225.416,190.282 225.249,188.949 223.5,187.5C 224.396,185.664 225.396,183.997 226.5,182.5C 226.084,187.912 226.084,193.245 226.5,198.5C 223.251,199.724 220.085,198.724 217,195.5C 208.322,196.688 199.656,196.688 191,195.5C 190,193.833 189,192.167 188,190.5C 187.667,191.5 187.333,192.5 187,193.5C 186.722,192.584 186.222,191.918 185.5,191.5C 185.818,186.968 185.485,182.634 184.5,178.5C 184.5,163.833 184.5,149.167 184.5,134.5 Z"/></g>
<g><path style="opacity:1" fill="#c145c9" d="M 260.5,172.5 C 260.586,173.496 260.252,174.329 259.5,175C 262.283,176.727 263.95,179.227 264.5,182.5C 266.132,183.297 267.632,184.297 269,185.5C 271.811,184.596 274.478,184.263 277,184.5C 279.126,185.992 281.126,187.659 283,189.5C 283.945,189.095 284.612,188.428 285,187.5C 285.561,188.022 286.228,188.355 287,188.5C 288.722,188.389 288.888,187.889 287.5,187C 289.473,186.505 291.473,186.338 293.5,186.5C 288.833,191.833 283.833,196.833 278.5,201.5C 273.668,201.278 269.168,199.945 265,197.5C 261.71,197.707 257.877,198.373 253.5,199.5C 250.717,197.743 248.55,195.41 247,192.5C 246.517,191.552 246.351,190.552 246.5,189.5C 252.047,188.071 252.38,186.404 247.5,184.5C 246.06,185.952 244.394,186.952 242.5,187.5C 245.874,183.124 249.874,179.458 254.5,176.5C 256.754,175.585 258.754,174.252 260.5,172.5 Z"/></g>
<g><path style="opacity:1" fill="#b341cd" d="M 226.5,198.5 C 228.475,198.164 230.475,198.664 232.5,200C 232.839,202.277 232.173,204.444 230.5,206.5C 227.53,207.165 224.53,207.831 221.5,208.5C 216.68,207.192 211.846,207.192 207,208.5C 200.378,207.672 194.044,206.672 188,205.5C 187.768,206.737 187.268,207.737 186.5,208.5C 185.548,202.925 185.214,197.259 185.5,191.5C 186.222,191.918 186.722,192.584 187,193.5C 187.333,192.5 187.667,191.5 188,190.5C 189,192.167 190,193.833 191,195.5C 199.656,196.688 208.322,196.688 217,195.5C 220.085,198.724 223.251,199.724 226.5,198.5 Z"/></g>
<g><path style="opacity:1" fill="#b243cc" d="M 226.5,134.5 C 226.833,134.5 227.167,134.5 227.5,134.5C 227.17,154.34 227.503,174.007 228.5,193.5C 228.196,194.15 227.863,194.817 227.5,195.5C 232.147,197.501 235.481,196.167 237.5,191.5C 239.167,190.167 240.833,188.833 242.5,187.5C 244.394,186.952 246.06,185.952 247.5,184.5C 252.38,186.404 252.047,188.071 246.5,189.5C 246.351,190.552 246.517,191.552 247,192.5C 248.55,195.41 250.717,197.743 253.5,199.5C 257.877,198.373 261.71,197.707 265,197.5C 269.168,199.945 273.668,201.278 278.5,201.5C 276.833,203.833 274.833,205.833 272.5,207.5C 269.708,207.452 267.875,208.785 267,211.5C 266.51,210.207 266.343,208.873 266.5,207.5C 264.071,207.585 262.071,208.585 260.5,210.5C 258.43,208.358 255.93,207.024 253,206.5C 248.738,207.465 244.738,207.465 241,206.5C 239.271,208.434 237.271,208.434 235,206.5C 233.152,208.688 231.652,208.688 230.5,206.5C 232.173,204.444 232.839,202.277 232.5,200C 230.475,198.664 228.475,198.164 226.5,198.5C 226.084,193.245 226.084,187.912 226.5,182.5C 226.5,180.167 226.5,177.833 226.5,175.5C 226.5,170.167 226.5,164.833 226.5,159.5C 226.5,151.167 226.5,142.833 226.5,134.5 Z"/></g>
<g><path style="opacity:1" fill="#e9b4fc" d="M 230.5,191.5 C 230.47,192.497 230.97,193.164 232,193.5C 233.597,192.115 235.43,191.449 237.5,191.5C 235.481,196.167 232.147,197.501 227.5,195.5C 227.863,194.817 228.196,194.15 228.5,193.5C 228.833,192.5 229.5,191.833 230.5,191.5 Z"/></g>
<g><path style="opacity:1" fill="#a941d1" d="M 230.5,206.5 C 231.652,208.688 233.152,208.688 235,206.5C 237.271,208.434 239.271,208.434 241,206.5C 244.738,207.465 248.738,207.465 253,206.5C 255.93,207.024 258.43,208.358 260.5,210.5C 262.071,208.585 264.071,207.585 266.5,207.5C 266.343,208.873 266.51,210.207 267,211.5C 267.875,208.785 269.708,207.452 272.5,207.5C 269.761,210.233 267.427,213.233 265.5,216.5C 264.5,215.167 263.5,215.167 262.5,216.5C 260.845,214.014 258.678,212.014 256,210.5C 255.303,212.15 253.637,213.483 251,214.5C 250,214.167 249,213.833 248,213.5C 245.29,215.555 242.624,215.888 240,214.5C 236.944,215.077 233.944,215.743 231,216.5C 230,215.833 229,215.167 228,214.5C 225.667,215.167 223.333,215.833 221,216.5C 220.333,213.833 219.667,213.833 219,216.5C 217.667,215.167 216.333,215.167 215,216.5C 214.667,215.833 214.333,215.167 214,214.5C 212.667,214.5 211.333,214.5 210,214.5C 205.92,215.3 201.753,215.8 197.5,216C 194.594,218.693 191.594,218.527 188.5,215.5C 187.914,215.709 187.414,216.043 187,216.5C 186.503,213.854 186.336,211.187 186.5,208.5C 187.268,207.737 187.768,206.737 188,205.5C 194.044,206.672 200.378,207.672 207,208.5C 211.846,207.192 216.68,207.192 221.5,208.5C 224.53,207.831 227.53,207.165 230.5,206.5 Z"/></g>
<g><path style="opacity:1" fill="#a042d8" d="M 184.5,178.5 C 185.485,182.634 185.818,186.968 185.5,191.5C 185.214,197.259 185.548,202.925 186.5,208.5C 186.336,211.187 186.503,213.854 187,216.5C 187.414,216.043 187.914,215.709 188.5,215.5C 191.594,218.527 194.594,218.693 197.5,216C 201.753,215.8 205.92,215.3 210,214.5C 211.333,214.5 212.667,214.5 214,214.5C 214.333,215.167 214.667,215.833 215,216.5C 216.333,215.167 217.667,215.167 219,216.5C 219.667,213.833 220.333,213.833 221,216.5C 223.333,215.833 225.667,215.167 228,214.5C 229,215.167 230,215.833 231,216.5C 233.944,215.743 236.944,215.077 240,214.5C 242.624,215.888 245.29,215.555 248,213.5C 249,213.833 250,214.167 251,214.5C 253.637,213.483 255.303,212.15 256,210.5C 258.678,212.014 260.845,214.014 262.5,216.5C 261.314,218.194 261.481,219.861 263,221.5C 269.003,226.337 274.503,231.67 279.5,237.5C 277.405,236.588 275.405,235.421 273.5,234C 270.016,230.917 266.682,227.751 263.5,224.5C 262.22,223.069 260.553,222.402 258.5,222.5C 258.5,223.5 258.5,224.5 258.5,225.5C 257.5,225.5 256.5,225.5 255.5,225.5C 255.5,224.167 255.5,222.833 255.5,221.5C 250.077,222.592 244.91,222.259 240,220.5C 237.602,221.919 235.102,223.253 232.5,224.5C 229.833,223.167 227.167,223.167 224.5,224.5C 223.522,224.023 222.689,223.357 222,222.5C 218.465,223.211 214.798,223.544 211,223.5C 208.888,221.078 206.888,221.078 205,223.5C 201.951,222.614 198.451,222.781 194.5,224C 195.022,224.561 195.355,225.228 195.5,226C 194.033,227.782 192.699,229.615 191.5,231.5C 190.593,228.196 189.093,227.862 187,230.5C 186.502,233.482 186.335,236.482 186.5,239.5C 185.833,239.5 185.5,239.833 185.5,240.5C 184.503,220.007 184.169,199.34 184.5,178.5 Z"/></g>
<g><path style="opacity:1" fill="#9c42de" d="M 263.5,224.5 C 261.731,225.421 260.065,226.588 258.5,228C 259.28,229.073 259.113,230.24 258,231.5C 257.072,229.665 255.906,229.332 254.5,230.5C 251.891,229.77 249.224,229.27 246.5,229C 247.696,228.346 247.696,227.846 246.5,227.5C 243.36,229.216 240.027,230.549 236.5,231.5C 233.727,230.428 230.893,229.428 228,228.5C 226.667,228.5 225.333,228.5 224,228.5C 223.626,229.416 223.126,230.25 222.5,231C 214.397,231.033 206.397,231.867 198.5,233.5C 196.956,233.21 195.623,232.544 194.5,231.5C 193.466,234.125 192.466,234.125 191.5,231.5C 192.699,229.615 194.033,227.782 195.5,226C 195.355,225.228 195.022,224.561 194.5,224C 198.451,222.781 201.951,222.614 205,223.5C 206.888,221.078 208.888,221.078 211,223.5C 214.798,223.544 218.465,223.211 222,222.5C 222.689,223.357 223.522,224.023 224.5,224.5C 227.167,223.167 229.833,223.167 232.5,224.5C 235.102,223.253 237.602,221.919 240,220.5C 244.91,222.259 250.077,222.592 255.5,221.5C 255.5,222.833 255.5,224.167 255.5,225.5C 256.5,225.5 257.5,225.5 258.5,225.5C 258.5,224.5 258.5,223.5 258.5,222.5C 260.553,222.402 262.22,223.069 263.5,224.5 Z"/></g>
<g><path style="opacity:1" fill="#9744e5" d="M 263.5,224.5 C 266.682,227.751 270.016,230.917 273.5,234C 275.405,235.421 277.405,236.588 279.5,237.5C 284.152,240.821 288.485,244.487 292.5,248.5C 287.854,246.841 283.854,244.174 280.5,240.5C 279.573,242.113 278.739,243.779 278,245.5C 277,245.833 276,246.167 275,246.5C 273.957,244.299 273.123,241.966 272.5,239.5C 268.416,240.672 264.416,242.005 260.5,243.5C 258.792,241.309 256.792,240.976 254.5,242.5C 252.896,242.061 251.396,241.394 250,240.5C 249.5,240.667 249,240.833 248.5,241C 249.747,242.494 249.747,243.994 248.5,245.5C 246.013,245.218 243.347,245.218 240.5,245.5C 239.5,245.5 238.5,245.5 237.5,245.5C 237.5,244.167 237.5,242.833 237.5,241.5C 236.325,241.719 235.325,241.386 234.5,240.5C 235.391,239.41 236.391,239.41 237.5,240.5C 238.912,239.194 240.579,238.36 242.5,238C 241.234,237.691 240.067,237.191 239,236.5C 234.426,235.271 229.593,235.271 224.5,236.5C 224.5,237.5 224.5,238.5 224.5,239.5C 222.418,239.472 220.584,240.139 219,241.5C 217.667,240.167 216.333,240.167 215,241.5C 214.667,240.833 214.333,240.167 214,239.5C 210.65,240.418 207.15,240.752 203.5,240.5C 203.5,241.5 203.5,242.5 203.5,243.5C 199.486,243.334 195.486,243.501 191.5,244C 190.667,244.833 189.833,245.667 189,246.5C 188.83,244.029 187.997,241.695 186.5,239.5C 186.335,236.482 186.502,233.482 187,230.5C 189.093,227.862 190.593,228.196 191.5,231.5C 192.466,234.125 193.466,234.125 194.5,231.5C 195.623,232.544 196.956,233.21 198.5,233.5C 206.397,231.867 214.397,231.033 222.5,231C 223.126,230.25 223.626,229.416 224,228.5C 225.333,228.5 226.667,228.5 228,228.5C 230.893,229.428 233.727,230.428 236.5,231.5C 240.027,230.549 243.36,229.216 246.5,227.5C 247.696,227.846 247.696,228.346 246.5,229C 249.224,229.27 251.891,229.77 254.5,230.5C 255.906,229.332 257.072,229.665 258,231.5C 259.113,230.24 259.28,229.073 258.5,228C 260.065,226.588 261.731,225.421 263.5,224.5 Z"/></g>
<g><path style="opacity:1" fill="#c779f4" d="M 265.5,216.5 C 286.491,234.825 307.158,253.492 327.5,272.5C 327.5,273.5 327.5,274.5 327.5,275.5C 324.208,275.353 321.208,274.353 318.5,272.5C 317.71,271.599 316.71,270.932 315.5,270.5C 307.833,263.167 300.167,255.833 292.5,248.5C 288.485,244.487 284.152,240.821 279.5,237.5C 274.503,231.67 269.003,226.337 263,221.5C 261.481,219.861 261.314,218.194 262.5,216.5C 263.5,215.167 264.5,215.167 265.5,216.5 Z"/></g>
<g><path style="opacity:1" fill="#9047f2" d="M 292.5,248.5 C 300.167,255.833 307.833,263.167 315.5,270.5C 311.015,268.073 307.015,264.907 303.5,261C 301.19,260.503 298.857,260.337 296.5,260.5C 296.628,262.655 296.128,264.655 295,266.5C 292.652,263.143 289.652,262.143 286,263.5C 282.964,262.729 280.131,261.563 277.5,260C 275.231,259.242 273.064,259.409 271,260.5C 269.601,259.773 268.101,259.273 266.5,259C 265.663,257.989 265.33,256.822 265.5,255.5C 264.167,255.5 262.833,255.5 261.5,255.5C 262.486,257.844 263.819,260.011 265.5,262C 265.333,262.833 265.167,263.667 265,264.5C 262.821,261.989 260.321,259.822 257.5,258C 254.113,256.855 253.113,257.688 254.5,260.5C 252.099,258.438 249.433,256.771 246.5,255.5C 245.336,252.813 243.503,250.48 241,248.5C 240.517,247.552 240.351,246.552 240.5,245.5C 243.347,245.218 246.013,245.218 248.5,245.5C 249.747,243.994 249.747,242.494 248.5,241C 249,240.833 249.5,240.667 250,240.5C 251.396,241.394 252.896,242.061 254.5,242.5C 256.792,240.976 258.792,241.309 260.5,243.5C 264.416,242.005 268.416,240.672 272.5,239.5C 273.123,241.966 273.957,244.299 275,246.5C 276,246.167 277,245.833 278,245.5C 278.739,243.779 279.573,242.113 280.5,240.5C 283.854,244.174 287.854,246.841 292.5,248.5 Z"/></g>
<g><path style="opacity:1" fill="#874afc" d="M 315.5,270.5 C 316.71,270.932 317.71,271.599 318.5,272.5C 318.894,274.71 320.227,276.043 322.5,276.5C 323.209,277.404 324.209,277.737 325.5,277.5C 325.867,281.967 325.367,286.3 324,290.5C 321.493,287.624 320.993,284.457 322.5,281C 322,280.5 321.5,280 321,279.5C 320.077,280.759 319.243,282.092 318.5,283.5C 316.305,281.135 313.805,279.802 311,279.5C 310.261,280.574 309.261,281.241 308,281.5C 306.333,280.5 304.667,279.5 303,278.5C 300.706,280.459 298.206,280.793 295.5,279.5C 296.376,278.749 297.376,278.249 298.5,278C 293.836,277.649 289.669,276.149 286,273.5C 284.148,276.06 282.482,278.727 281,281.5C 278.946,279.942 277.446,277.942 276.5,275.5C 274.253,274.626 271.92,274.292 269.5,274.5C 269.598,271.752 268.598,271.086 266.5,272.5C 264.31,271.626 263.31,269.959 263.5,267.5C 262.448,267.649 261.448,267.483 260.5,267C 258.294,264.963 256.294,262.797 254.5,260.5C 253.113,257.688 254.113,256.855 257.5,258C 260.321,259.822 262.821,261.989 265,264.5C 265.167,263.667 265.333,262.833 265.5,262C 263.819,260.011 262.486,257.844 261.5,255.5C 262.833,255.5 264.167,255.5 265.5,255.5C 265.33,256.822 265.663,257.989 266.5,259C 268.101,259.273 269.601,259.773 271,260.5C 273.064,259.409 275.231,259.242 277.5,260C 280.131,261.563 282.964,262.729 286,263.5C 289.652,262.143 292.652,263.143 295,266.5C 296.128,264.655 296.628,262.655 296.5,260.5C 298.857,260.337 301.19,260.503 303.5,261C 307.015,264.907 311.015,268.073 315.5,270.5 Z"/></g>
<g><path style="opacity:1" fill="#6746cd" d="M 246.5,255.5 C 249.433,256.771 252.099,258.438 254.5,260.5C 256.294,262.797 258.294,264.963 260.5,267C 261.448,267.483 262.448,267.649 263.5,267.5C 263.31,269.959 264.31,271.626 266.5,272.5C 269.842,275.509 272.842,278.843 275.5,282.5C 265.526,273.861 255.86,264.861 246.5,255.5 Z"/></g>
<g><path style="opacity:1" fill="#7f4dfd" d="M 322.5,276.5 C 323.833,276.5 325.167,276.5 326.5,276.5C 326.666,281.179 326.499,285.845 326,290.5C 325.632,291.91 324.799,292.91 323.5,293.5C 322.066,292.064 320.9,290.398 320,288.5C 316.503,289.355 313.17,289.688 310,289.5C 303.536,287.363 296.369,285.363 288.5,283.5C 288.5,284.5 288.5,285.5 288.5,286.5C 287.448,286.649 286.448,286.483 285.5,286C 287.211,284.867 287.711,283.367 287,281.5C 286.692,282.308 286.192,282.975 285.5,283.5C 282.242,282.583 278.909,282.249 275.5,282.5C 272.842,278.843 269.842,275.509 266.5,272.5C 268.598,271.086 269.598,271.752 269.5,274.5C 271.92,274.292 274.253,274.626 276.5,275.5C 277.446,277.942 278.946,279.942 281,281.5C 282.482,278.727 284.148,276.06 286,273.5C 289.669,276.149 293.836,277.649 298.5,278C 297.376,278.249 296.376,278.749 295.5,279.5C 298.206,280.793 300.706,280.459 303,278.5C 304.667,279.5 306.333,280.5 308,281.5C 309.261,281.241 310.261,280.574 311,279.5C 313.805,279.802 316.305,281.135 318.5,283.5C 319.243,282.092 320.077,280.759 321,279.5C 321.5,280 322,280.5 322.5,281C 320.993,284.457 321.493,287.624 324,290.5C 325.367,286.3 325.867,281.967 325.5,277.5C 324.209,277.737 323.209,277.404 322.5,276.5 Z"/></g>
<g><path style="opacity:1" fill="#663fcb" d="M 184.5,132.5 C 184.5,133.167 184.5,133.833 184.5,134.5C 184.5,149.167 184.5,163.833 184.5,178.5C 184.169,199.34 184.503,220.007 185.5,240.5C 185.172,251.014 185.506,261.347 186.5,271.5C 186.833,271.5 187.167,271.5 187.5,271.5C 187.905,276.208 188.238,280.708 188.5,285C 184.633,288.92 184.633,292.92 188.5,297C 186.109,297.691 186.109,298.691 188.5,300C 200.167,300.667 211.833,300.667 223.5,300C 224.025,299.308 224.692,298.808 225.5,298.5C 226.499,284.182 226.833,269.849 226.5,255.5C 226.666,250.821 226.499,246.155 226,241.5C 225.722,240.584 225.222,239.918 224.5,239.5C 224.5,238.5 224.5,237.5 224.5,236.5C 229.593,235.271 234.426,235.271 239,236.5C 240.067,237.191 241.234,237.691 242.5,238C 240.579,238.36 238.912,239.194 237.5,240.5C 236.391,239.41 235.391,239.41 234.5,240.5C 235.325,241.386 236.325,241.719 237.5,241.5C 237.5,242.833 237.5,244.167 237.5,245.5C 238.5,245.5 239.5,245.5 240.5,245.5C 240.351,246.552 240.517,247.552 241,248.5C 243.503,250.48 245.336,252.813 246.5,255.5C 241.035,250.536 235.702,245.37 230.5,240C 229.552,239.517 228.552,239.351 227.5,239.5C 228.797,259.676 228.63,279.676 227,299.5C 225.316,301.066 223.316,302.066 221,302.5C 211.661,301.666 202.161,301.666 192.5,302.5C 189.243,302.582 186.409,301.582 184,299.5C 183.168,243.665 183.335,187.998 184.5,132.5 Z"/></g>
<g><path style="opacity:1" fill="#7c4efd" d="M 225.5,255.5 C 225.833,255.5 226.167,255.5 226.5,255.5C 226.833,269.849 226.499,284.182 225.5,298.5C 224.692,298.808 224.025,299.308 223.5,300C 211.833,300.667 200.167,300.667 188.5,300C 186.109,298.691 186.109,297.691 188.5,297C 184.633,292.92 184.633,288.92 188.5,285C 188.238,280.708 187.905,276.208 187.5,271.5C 189.017,271.489 190.184,270.823 191,269.5C 192.101,271.394 193.434,272.061 195,271.5C 196.419,270.54 197.919,269.707 199.5,269C 198.5,268.667 197.5,268.333 196.5,268C 195.304,267.346 195.304,266.846 196.5,266.5C 202.442,269.183 208.609,271.183 215,272.5C 215.308,271.692 215.808,271.025 216.5,270.5C 217.736,271.246 219.07,271.579 220.5,271.5C 221.59,278.11 223.09,278.11 225,271.5C 225.499,266.177 225.666,260.844 225.5,255.5 Z"/></g>
<g><path style="opacity:1" fill="#8b4bf9" d="M 225.5,255.5 C 225.666,260.844 225.499,266.177 225,271.5C 223.09,278.11 221.59,278.11 220.5,271.5C 219.07,271.579 217.736,271.246 216.5,270.5C 215.808,271.025 215.308,271.692 215,272.5C 208.609,271.183 202.442,269.183 196.5,266.5C 195.304,266.846 195.304,267.346 196.5,268C 197.5,268.333 198.5,268.667 199.5,269C 197.919,269.707 196.419,270.54 195,271.5C 193.434,272.061 192.101,271.394 191,269.5C 190.184,270.823 189.017,271.489 187.5,271.5C 187.167,271.5 186.833,271.5 186.5,271.5C 186.334,266.489 186.501,261.489 187,256.5C 187.333,258.5 187.667,260.5 188,262.5C 189.378,258.558 191.878,257.558 195.5,259.5C 195.5,258.167 195.5,256.833 195.5,255.5C 205.358,254.973 215.358,254.973 225.5,255.5 Z"/></g>
<g><path style="opacity:1" fill="#9246ef" d="M 186.5,239.5 C 187.997,241.695 188.83,244.029 189,246.5C 189.833,245.667 190.667,244.833 191.5,244C 195.486,243.501 199.486,243.334 203.5,243.5C 203.5,242.5 203.5,241.5 203.5,240.5C 207.15,240.752 210.65,240.418 214,239.5C 214.333,240.167 214.667,240.833 215,241.5C 216.333,240.167 217.667,240.167 219,241.5C 220.584,240.139 222.418,239.472 224.5,239.5C 225.222,239.918 225.722,240.584 226,241.5C 226.499,246.155 226.666,250.821 226.5,255.5C 226.167,255.5 225.833,255.5 225.5,255.5C 215.358,254.973 205.358,254.973 195.5,255.5C 195.5,256.833 195.5,258.167 195.5,259.5C 191.878,257.558 189.378,258.558 188,262.5C 187.667,260.5 187.333,258.5 187,256.5C 186.501,261.489 186.334,266.489 186.5,271.5C 185.506,261.347 185.172,251.014 185.5,240.5C 185.5,239.833 185.833,239.5 186.5,239.5 Z"/></g>
<g><path style="opacity:1" fill="#744efa" d="M 318.5,272.5 C 321.208,274.353 324.208,275.353 327.5,275.5C 327.5,274.5 327.5,273.5 327.5,272.5C 328.657,281.324 328.824,290.324 328,299.5C 327.722,300.416 327.222,301.082 326.5,301.5C 316.341,300.67 306.008,300.17 295.5,300C 293.508,297.172 290.841,295.339 287.5,294.5C 283.167,290.833 279.167,286.833 275.5,282.5C 278.909,282.249 282.242,282.583 285.5,283.5C 286.192,282.975 286.692,282.308 287,281.5C 287.711,283.367 287.211,284.867 285.5,286C 286.448,286.483 287.448,286.649 288.5,286.5C 288.5,285.5 288.5,284.5 288.5,283.5C 296.369,285.363 303.536,287.363 310,289.5C 313.17,289.688 316.503,289.355 320,288.5C 320.9,290.398 322.066,292.064 323.5,293.5C 324.799,292.91 325.632,291.91 326,290.5C 326.499,285.845 326.666,281.179 326.5,276.5C 325.167,276.5 323.833,276.5 322.5,276.5C 320.227,276.043 318.894,274.71 318.5,272.5 Z"/></g>
<g><path style="opacity:0.688" fill="#4637a5" d="M 287.5,294.5 C 290.841,295.339 293.508,297.172 295.5,300C 306.008,300.17 316.341,300.67 326.5,301.5C 315.891,302.703 305.225,302.537 294.5,301C 291.669,299.334 289.336,297.168 287.5,294.5 Z"/></g>
<g><path style="opacity:0.898" fill="#ba79f7" d="M 302.5,342.5 C 303.882,345.394 305.882,347.894 308.5,350C 304.835,351.012 301.668,350.179 299,347.5C 298.667,347.833 298.333,348.167 298,348.5C 297.503,346.19 297.337,343.857 297.5,341.5C 297.735,340.903 298.235,340.57 299,340.5C 300.303,340.978 301.469,341.645 302.5,342.5 Z"/></g>
<g><path style="opacity:1" fill="#b26ff9" d="M 345.5,343.5 C 343.012,345.388 340.012,346.055 336.5,345.5C 335.596,346.209 335.263,347.209 335.5,348.5C 338.167,348.5 340.833,348.5 343.5,348.5C 343.67,349.822 343.337,350.989 342.5,352C 340.19,352.497 337.857,352.663 335.5,352.5C 335.5,353.833 335.5,355.167 335.5,356.5C 338.5,356.5 341.5,356.5 344.5,356.5C 344.5,357.833 344.5,359.167 344.5,360.5C 340.167,360.5 335.833,360.5 331.5,360.5C 331.5,354.167 331.5,347.833 331.5,341.5C 336.48,340.985 341.146,341.652 345.5,343.5 Z"/></g>
<g><path style="opacity:1" fill="#9a62ea" d="M 201.5,340.5 C 203.167,340.5 204.833,340.5 206.5,340.5C 207.117,347.56 207.117,354.56 206.5,361.5C 204.833,361.5 203.167,361.5 201.5,361.5C 200.213,354.507 200.213,347.507 201.5,340.5 Z"/></g>
<g><path style="opacity:1" fill="#8754d9" d="M 297.5,341.5 C 297.337,343.857 297.503,346.19 298,348.5C 298.333,348.167 298.667,347.833 299,347.5C 301.668,350.179 304.835,351.012 308.5,350C 305.882,347.894 303.882,345.394 302.5,342.5C 305.5,344.668 308,347.334 310,350.5C 310.769,347.901 310.602,345.401 309.5,343C 310.955,340.984 312.955,340.151 315.5,340.5C 316.833,347.5 316.833,354.5 315.5,361.5C 310.031,359.871 305.864,356.538 303,351.5C 302.667,354.5 302.333,357.5 302,360.5C 300.333,361.833 298.667,361.833 297,360.5C 296.18,353.986 296.347,347.653 297.5,341.5 Z"/></g>
<g><path style="opacity:1" fill="#9a62e7" d="M 170.5,340.5 C 172.75,340.181 174.75,340.681 176.5,342C 175.424,343.726 175.257,345.559 176,347.5C 178.765,341.736 183.265,339.57 189.5,341C 186.65,343.682 183.984,346.516 181.5,349.5C 184,352.5 186.5,355.5 189,358.5C 189.483,359.448 189.649,360.448 189.5,361.5C 183.678,361.864 179.845,359.197 178,353.5C 176.625,355.937 176.125,358.603 176.5,361.5C 174.533,361.739 172.699,361.406 171,360.5C 170.5,353.842 170.334,347.175 170.5,340.5 Z"/></g>
<g><path style="opacity:0.906" fill="#8f5ae2" d="M 227.5,341.5 C 225.833,341.5 224.167,341.5 222.5,341.5C 222.337,343.857 222.503,346.19 223,348.5C 225.54,347.124 227.54,347.79 229,350.5C 229.925,349.953 230.758,349.287 231.5,348.5C 230.873,347.583 230.539,346.583 230.5,345.5C 231.885,346.574 233.051,347.907 234,349.5C 236.029,346.971 237.862,344.304 239.5,341.5C 241.421,340.359 243.421,340.192 245.5,341C 246.493,347.205 246.659,353.705 246,360.5C 244.186,361.76 242.353,361.76 240.5,360.5C 239.818,357.543 239.652,354.543 240,351.5C 237.992,354.313 235.992,356.98 234,359.5C 232.009,356.864 230.009,354.198 228,351.5C 227.667,354.5 227.333,357.5 227,360.5C 225.612,361.554 224.112,361.72 222.5,361C 221.521,354.256 221.188,347.422 221.5,340.5C 223.735,340.205 225.735,340.539 227.5,341.5 Z"/></g>
<g><path style="opacity:1" fill="#c279f9" d="M 227.5,341.5 C 228.488,342.795 229.488,344.128 230.5,345.5C 230.539,346.583 230.873,347.583 231.5,348.5C 230.758,349.287 229.925,349.953 229,350.5C 227.54,347.79 225.54,347.124 223,348.5C 222.503,346.19 222.337,343.857 222.5,341.5C 224.167,341.5 225.833,341.5 227.5,341.5 Z"/></g>
<g><path style="opacity:0.992" fill="#985cea" d="M 268.5,340.5 C 270.722,340.178 272.556,340.845 274,342.5C 277.308,348.13 280.142,353.964 282.5,360C 282.167,360.333 281.833,360.667 281.5,361C 277.97,360.051 274.303,359.218 270.5,358.5C 267.391,358.638 264.724,359.638 262.5,361.5C 261.558,361.392 260.725,361.059 260,360.5C 261.423,353.311 264.256,346.644 268.5,340.5 Z M 269.5,349.5 C 272.388,350.54 272.721,351.873 270.5,353.5C 269.571,352.311 269.238,350.978 269.5,349.5 Z"/></g>
<g><path style="opacity:0.282" fill="#5b39b6" d="M 345.5,343.5 C 341.146,341.652 336.48,340.985 331.5,341.5C 331.5,347.833 331.5,354.167 331.5,360.5C 335.833,360.5 340.167,360.5 344.5,360.5C 344.5,359.167 344.5,357.833 344.5,356.5C 341.5,356.5 338.5,356.5 335.5,356.5C 335.5,355.167 335.5,353.833 335.5,352.5C 337.857,352.663 340.19,352.497 342.5,352C 343.337,350.989 343.67,349.822 343.5,348.5C 340.833,348.5 338.167,348.5 335.5,348.5C 335.263,347.209 335.596,346.209 336.5,345.5C 338.717,347.08 341.384,348.08 344.5,348.5C 345.833,349.833 345.833,351.167 344.5,352.5C 334.09,354.188 334.423,355.354 345.5,356C 345.665,357.117 345.998,358.284 346.5,359.5C 346.291,360.086 345.957,360.586 345.5,361C 340.511,361.499 335.511,361.666 330.5,361.5C 330.5,354.5 330.5,347.5 330.5,340.5C 335.544,340.173 340.544,340.506 345.5,341.5C 346.55,342.429 346.55,343.095 345.5,343.5 Z"/></g>
<g><path style="opacity:0.875" fill="#6037c1" d="M 304.5,377.5 C 304.5,380.5 304.5,383.5 304.5,386.5C 306.527,386.662 308.527,386.495 310.5,386C 306.068,385.377 305.735,384.377 309.5,383C 308.552,382.517 307.552,382.351 306.5,382.5C 306.5,381.5 306.5,380.5 306.5,379.5C 308.167,379.5 309.833,379.5 311.5,379.5C 311.962,382.193 312.129,384.86 312,387.5C 309.282,388.013 306.449,388.013 303.5,387.5C 303.187,383.958 303.521,380.625 304.5,377.5 Z"/></g>
<g><path style="opacity:0.992" fill="#7c50d6" d="M 253.5,376.5 C 255.397,378.698 256.397,381.364 256.5,384.5C 258.346,384.222 259.68,384.889 260.5,386.5C 258.535,387.292 256.535,387.959 254.5,388.5C 253.914,388.291 253.414,387.957 253,387.5C 252.245,383.745 252.411,380.078 253.5,376.5 Z"/></g>
<g><path style="opacity:1" fill="#7348ce" d="M 272.5,376.5 C 275.795,379.066 278.128,382.399 279.5,386.5C 278.758,387.287 277.925,387.953 277,388.5C 275.414,387.624 273.914,386.624 272.5,385.5C 270.652,388.478 268.652,388.812 266.5,386.5C 268.511,383.139 270.511,379.806 272.5,376.5 Z"/></g>
<g><path style="opacity:0.851" fill="#845cdc" d="M 288.5,376.5 C 292.09,376.543 294.757,378.043 296.5,381C 295.833,382 295.167,383 294.5,384C 295.337,385.011 295.67,386.178 295.5,387.5C 293.8,387.374 292.3,386.707 291,385.5C 289.7,386.707 288.2,387.374 286.5,387.5C 286.036,383.498 286.702,379.831 288.5,376.5 Z M 290.5,381.5 C 291.077,380.227 291.743,380.227 292.5,381.5C 292.03,382.463 291.363,382.463 290.5,381.5 Z"/></g>
<g><path style="opacity:0.859" fill="#9f70f5" d="M 304.5,377.5 C 307.247,377.187 309.914,377.52 312.5,378.5C 312.376,379.107 312.043,379.44 311.5,379.5C 309.833,379.5 308.167,379.5 306.5,379.5C 306.5,380.5 306.5,381.5 306.5,382.5C 307.552,382.351 308.552,382.517 309.5,383C 305.735,384.377 306.068,385.377 310.5,386C 308.527,386.495 306.527,386.662 304.5,386.5C 304.5,383.5 304.5,380.5 304.5,377.5 Z"/></g>
<g><path style="opacity:0.886" fill="#693fca" d="M 203.5,376.5 C 205.117,377.038 206.784,377.371 208.5,377.5C 206.992,380.14 207.326,382.473 209.5,384.5C 206.876,389.247 203.876,389.58 200.5,385.5C 200.881,383.259 201.048,380.926 201,378.5C 201.995,377.934 202.828,377.267 203.5,376.5 Z"/></g>
<g><path style="opacity:0.808" fill="#6d44ce" d="M 238.5,376.5 C 240.117,377.038 241.784,377.371 243.5,377.5C 243.67,378.822 243.337,379.989 242.5,381C 246.603,385.32 245.437,387.82 239,388.5C 234.584,386.403 233.417,383.07 235.5,378.5C 236.602,377.824 237.602,377.158 238.5,376.5 Z"/></g>
<g><path style="opacity:0.904" fill="#7a55d7" d="M 220.5,376.5 C 227.857,377.701 229.524,381.201 225.5,387C 219.984,389.386 216.651,387.552 215.5,381.5C 216.577,379.132 218.244,377.465 220.5,376.5 Z"/></g>
<g><path style="opacity:0.271" fill="#3f13a3" d="M 219.5,379.5 C 223.701,379.426 225.035,381.259 223.5,385C 218.728,385.81 217.395,383.977 219.5,379.5 Z"/></g>
</svg>
